<svg width="512" height="512" viewBox="0 0 512 512" xmlns="http://www.w3.org/2000/svg">
<defs><radialGradient id="sky" cx="50%" cy="44%" r="64%"><stop offset="0%" stop-color="#1D2E52"/><stop offset="55%" stop-color="#142036"/><stop offset="100%" stop-color="#0D1117"/></radialGradient></defs>
<rect width="512" height="512" rx="120" fill="#0D1117"/>
<rect width="512" height="512" rx="120" fill="url(#sky)"/>
<g stroke-linecap="round" stroke-linejoin="round">
<line x1="144" y1="176" x2="144" y2="360" stroke="#C49A5A" stroke-width="9"/>
<line x1="256" y1="138" x2="256" y2="360" stroke="#C49A5A" stroke-width="9"/>
<line x1="368" y1="184" x2="368" y2="360" stroke="#C49A5A" stroke-width="9"/>
<line x1="82" y1="298" x2="206" y2="298" stroke="#C49A5A" stroke-width="7"/>
<line x1="90" y1="236" x2="198" y2="236" stroke="#C49A5A" stroke-width="7"/>
<line x1="186" y1="298" x2="326" y2="298" stroke="#C49A5A" stroke-width="7"/>
<line x1="194" y1="232" x2="318" y2="232" stroke="#C49A5A" stroke-width="7"/>
<line x1="206" y1="168" x2="306" y2="168" stroke="#C49A5A" stroke-width="7"/>
<line x1="308" y1="298" x2="428" y2="298" stroke="#C49A5A" stroke-width="7"/>
<line x1="316" y1="240" x2="420" y2="240" stroke="#C49A5A" stroke-width="7"/>
<path d="M96 298 Q144 292 192 298 Q196 325 192 352 Q144 367 96 352 Q92 325 96 298 Z" fill="#E7ECF8"/>
<path d="M96 329.32 Q144 337.32 192 329.32 Q144 367 96 329.32 Z" fill="#B7C6E6"/>
<path d="M104 236 Q144 230 184 236 Q188 268 184 300 Q144 315 104 300 Q100 268 104 236 Z" fill="#E7ECF8"/>
<path d="M104 273.12 Q144 281.12 184 273.12 Q144 315 104 273.12 Z" fill="#B7C6E6"/>
<path d="M200 298 Q256 292 312 298 Q316 327 312 356 Q256 371 200 356 Q196 327 200 298 Z" fill="#E7ECF8"/>
<path d="M200 331.64 Q256 339.64 312 331.64 Q256 371 200 331.64 Z" fill="#B7C6E6"/>
<path d="M208 232 Q256 226 304 232 Q308 266 304 300 Q256 315 208 300 Q204 266 208 232 Z" fill="#E7ECF8"/>
<path d="M208 271.44 Q256 279.44 304 271.44 Q256 315 208 271.44 Z" fill="#B7C6E6"/>
<path d="M220 168 Q256 162 292 168 Q296 202 292 236 Q256 251 220 236 Q216 202 220 168 Z" fill="#E7ECF8"/>
<path d="M220 207.44 Q256 215.44 292 207.44 Q256 251 220 207.44 Z" fill="#B7C6E6"/>
<path d="M322 298 Q368 292 414 298 Q418 325 414 352 Q368 367 322 352 Q318 325 322 298 Z" fill="#E7ECF8"/>
<path d="M322 329.32 Q368 337.32 414 329.32 Q368 367 322 329.32 Z" fill="#B7C6E6"/>
<path d="M330 240 Q368 234 406 240 Q410 270 406 300 Q368 315 330 300 Q326 270 330 240 Z" fill="#E7ECF8"/>
<path d="M330 274.8 Q368 282.8 406 274.8 Q368 315 330 274.8 Z" fill="#B7C6E6"/>
<line x1="436" y1="356" x2="486" y2="324" stroke="#C49A5A" stroke-width="8"/>
<path d="M440 358 L482 330 L444 402 Z" fill="#E7ECF8"/>
<path d="M88 348 L120 360 L406 360 L452 346 L434 374 Q422 416 360 430 Q256 454 168 432 Q106 418 94 374 Z" fill="#3B82F6"/>
<path d="M120 360 L406 360" stroke="#6E9BF2" stroke-width="6"/>
<rect x="129.51999999999998" y="370" width="252.96" height="46" rx="12" fill="#1E40AF"/>
<g transform="translate(145.51999999999998,407.0) scale(0.04,-0.04)" fill="#E7ECF8"><path d="M310.0499267578125 -14Q230.099853515625 -14 168.62481689453125 14.562530517578125Q107.1497802734375 43.12506103515625 72.32476806640625 97.21255493164062Q37.499755859375 151.300048828125 37.499755859375 228.699951171875V255.12506103515625H155.9505615234375V228.699951171875Q155.9505615234375 159.7503662109375 197.83786010742188 125.62554931640625Q239.72515869140625 91.500732421875 310.0499267578125 91.500732421875Q381.37469482421875 91.500732421875 417.2370300292969 120.86306762695312Q453.099365234375 150.22540283203125 453.099365234375 195.900146484375Q453.099365234375 227.17498779296875 435.8994140625 246.48739624023438Q418.699462890625 265.7998046875 386.32452392578125 277.999755859375Q353.9495849609375 290.19970703125 308.42462158203125 300.5496826171875L278.2501220703125 307.47454833984375Q208.87493896484375 323.299560546875 158.51235961914062 347.4495849609375Q108.1497802734375 371.599609375 80.91226196289062 410.9871520996094Q53.67474365234375 450.37469482421875 53.67474365234375 513.1497802734375Q53.67474365234375 575.9248657226562 83.999755859375 620.8124084472656Q114.32476806640625 665.699951171875 169.21231079101562 689.8499755859375Q224.099853515625 714 298.0499267578125 714Q372 714 429.97503662109375 688.7624816894531Q487.9500732421875 663.5249633789062 521.2750854492188 613.7249145507812Q554.60009765625 563.9248657226562 554.60009765625 488.97479248046875V456H436.1492919921875V488.97479248046875Q436.1492919921875 531.599609375 419.1618957519531 557.7619934082031Q402.17449951171875 583.9243774414062 371.07464599609375 596.2118225097656Q339.97479248046875 608.499267578125 298.0499267578125 608.499267578125Q235.77508544921875 608.499267578125 203.9503173828125 584.0744018554688Q172.12554931640625 559.6495361328125 172.12554931640625 516.4498291015625Q172.12554931640625 487.6500244140625 186.67547607421875 468.42510986328125Q201.22540283203125 449.2001953125 229.71279907226562 436.67523193359375Q258.2001953125 424.1502685546875 301.2501220703125 414.62530517578125L331.42462158203125 407.700439453125Q402.92486572265625 392.22540283203125 456.7624816894531 367.8378601074219Q510.60009765625 343.4503173828125 541.0751342773438 303.0627746582031Q571.5501708984375 262.67523193359375 571.5501708984375 199.2001953125Q571.5501708984375 135.72515869140625 539.400146484375 87.83761596679688Q507.2501220703125 39.9500732421875 448.5375671386719 12.97503662109375Q389.82501220703125 -14 310.0499267578125 -14Z" transform="translate(0,0)"/><path d="M73.1497802734375 0V700H187.6005859375V429.0504150390625H204.5506591796875Q213.2506103515625 446.4503173828125 231.03805541992188 463.4127502441406Q248.82550048828125 480.37518310546875 278.37542724609375 491.400146484375Q307.92535400390625 502.42510986328125 353.32525634765625 502.42510986328125Q410.4503173828125 502.42510986328125 454.0378112792969 476.7125549316406Q497.62530517578125 451 522.0627746582031 404.9374694824219Q546.500244140625 358.87493896484375 546.500244140625 296V0H432.0494384765625V287.0499267578125Q432.0494384765625 347.2496337890625 402.3620910644531 376.3870544433594Q372.67474365234375 405.52447509765625 318.87493896484375 405.52447509765625Q257.900146484375 405.52447509765625 222.7503662109375 365.1871032714844Q187.6005859375 324.8497314453125 187.6005859375 250.42510986328125V0Z" transform="translate(633.0,0)"/><path d="M73.1497802734375 0V494.2501220703125H187.6005859375V0ZM130.37518310546875 556.7998046875Q98.47503662109375 556.7998046875 76.46243286132812 577.5748901367188Q54.4498291015625 598.3499755859375 54.4498291015625 631.900146484375Q54.4498291015625 665.6253051757812 76.46243286132812 686.3128967285156Q98.47503662109375 707.00048828125 130.37518310546875 707.00048828125Q163.27532958984375 707.00048828125 184.78793334960938 686.3128967285156Q206.300537109375 665.6253051757812 206.300537109375 631.900146484375Q206.300537109375 598.3499755859375 184.78793334960938 577.5748901367188Q163.27532958984375 556.7998046875 130.37518310546875 556.7998046875Z" transform="translate(1273.0,0)"/><path d="M73.1497802734375 -200V494.2501220703125H185.6005859375V429.17547607421875H202.5506591796875Q220.2506103515625 460.100341796875 257.7380065917969 484.17523193359375Q295.22540283203125 508.2501220703125 364.500244140625 508.2501220703125Q425.37518310546875 508.2501220703125 476.72515869140625 478.57513427734375Q528.0751342773438 448.900146484375 559.1626281738281 392.07513427734375Q590.2501220703125 335.2501220703125 590.2501220703125 254.77508544921875V239.47503662109375Q590.2501220703125 159.17498779296875 559.2501220703125 102.26248168945312Q528.2501220703125 45.3499755859375 476.900146484375 15.67498779296875Q425.5501708984375 -14 364.500244140625 -14Q318.100341796875 -14 286.37542724609375 -2.800048828125Q254.6505126953125 8.39990234375 235.27557373046875 26.037322998046875Q215.900634765625 43.67474365234375 204.5506591796875 61.899658203125H187.6005859375V-200ZM330.699951171875 86.20068359375Q393.899658203125 86.20068359375 434.67449951171875 126.41299438476562Q475.4493408203125 166.62530517578125 475.4493408203125 242.300048828125V251.9500732421875Q475.4493408203125 327.62481689453125 434.2619934082031 367.8371276855469Q393.07464599609375 408.0494384765625 330.699951171875 408.0494384765625Q268.500244140625 408.0494384765625 227.22540283203125 367.8371276855469Q185.9505615234375 327.62481689453125 185.9505615234375 251.9500732421875V242.300048828125Q185.9505615234375 166.62530517578125 227.22540283203125 126.41299438476562Q268.500244140625 86.20068359375 330.699951171875 86.20068359375Z" transform="translate(1559.0,0)"/><path d="M120.1492919921875 0 43.1497802734375 494.2501220703125H157.12554931640625L210.22491455078125 77.12554931640625H227.17498779296875L301.8492431640625 494.2501220703125H486.3504638671875L561.0247192382812 77.12554931640625H577.9747924804688L631.0741577148438 494.2501220703125H745.0499267578125L668.0504150390625 0H477.2491455078125L402.57489013671875 417.12457275390625H385.62481689453125L310.9505615234375 0Z" transform="translate(2223.0,0)"/><path d="M73.1497802734375 0V494.2501220703125H185.6005859375V437.37518310546875H202.5506591796875Q214.07562255859375 467.900146484375 239.92559814453125 482.07513427734375Q265.77557373046875 496.2501220703125 302.400390625 496.2501220703125H361.87542724609375V394.0494384765625H299.52545166015625Q250.300537109375 394.0494384765625 218.9505615234375 367.5870056152344Q187.6005859375 341.12457275390625 187.6005859375 285.8497314453125V0Z" transform="translate(3036.0,0)"/><path d="M73.1497802734375 0V494.2501220703125H187.6005859375V0ZM130.37518310546875 556.7998046875Q98.47503662109375 556.7998046875 76.46243286132812 577.5748901367188Q54.4498291015625 598.3499755859375 54.4498291015625 631.900146484375Q54.4498291015625 665.6253051757812 76.46243286132812 686.3128967285156Q98.47503662109375 707.00048828125 130.37518310546875 707.00048828125Q163.27532958984375 707.00048828125 184.78793334960938 686.3128967285156Q206.300537109375 665.6253051757812 206.300537109375 631.900146484375Q206.300537109375 598.3499755859375 184.78793334960938 577.5748901367188Q163.27532958984375 556.7998046875 130.37518310546875 556.7998046875Z" transform="translate(3452.0,0)"/><path d="M49.1497802734375 245.12506103515625V260.42510986328125Q49.1497802734375 338.2501220703125 80.23727416992188 393.6626281738281Q111.32476806640625 449.07513427734375 163.08724975585938 478.6626281738281Q214.8497314453125 508.2501220703125 276.5496826171875 508.2501220703125Q346.6495361328125 508.2501220703125 383.3119201660156 482.9377136230469Q419.97430419921875 457.62530517578125 436.8492431640625 429.17547607421875H453.79931640625V494.2501220703125H565.900146484375V-94.299560546875Q565.900146484375 -142.67474365234375 537.8250122070312 -171.33737182617188Q509.7498779296875 -200 461.67474365234375 -200H129.67474365234375V-99.79931640625H423.27435302734375Q451.79931640625 -99.79931640625 451.79931640625 -69.79931640625V73.19970703125H434.8492431640625Q424.32427978515625 55.7998046875 405.3618469238281 38.162384033203125Q386.3994140625 20.52496337890625 355.17449951171875 8.912506103515625Q323.9495849609375 -2.699951171875 276.5496826171875 -2.699951171875Q214.8497314453125 -2.699951171875 162.999755859375 26.887542724609375Q111.1497802734375 56.47503662109375 80.1497802734375 111.97503662109375Q49.1497802734375 167.47503662109375 49.1497802734375 245.12506103515625ZM308.699951171875 97.500732421875Q371.07464599609375 97.500732421875 412.2619934082031 137.12554931640625Q453.4493408203125 176.7503662109375 453.4493408203125 247.9500732421875V257.60009765625Q453.4493408203125 329.7998046875 412.67449951171875 368.92462158203125Q371.899658203125 408.0494384765625 308.699951171875 408.0494384765625Q246.500244140625 408.0494384765625 205.22540283203125 368.92462158203125Q163.9505615234375 329.7998046875 163.9505615234375 257.60009765625V247.9500732421875Q163.9505615234375 176.7503662109375 205.22540283203125 137.12554931640625Q246.500244140625 97.500732421875 308.699951171875 97.500732421875Z" transform="translate(3738.0,0)"/><path d="M73.1497802734375 0V700H187.6005859375V429.0504150390625H204.5506591796875Q213.2506103515625 446.4503173828125 231.03805541992188 463.4127502441406Q248.82550048828125 480.37518310546875 278.37542724609375 491.400146484375Q307.92535400390625 502.42510986328125 353.32525634765625 502.42510986328125Q410.4503173828125 502.42510986328125 454.0378112792969 476.7125549316406Q497.62530517578125 451 522.0627746582031 404.9374694824219Q546.500244140625 358.87493896484375 546.500244140625 296V0H432.0494384765625V287.0499267578125Q432.0494384765625 347.2496337890625 402.3620910644531 376.3870544433594Q372.67474365234375 405.52447509765625 318.87493896484375 405.52447509765625Q257.900146484375 405.52447509765625 222.7503662109375 365.1871032714844Q187.6005859375 324.8497314453125 187.6005859375 250.42510986328125V0Z" transform="translate(4402.0,0)"/><path d="M260.699951171875 0Q213.4498291015625 0 184.87469482421875 28.662628173828125Q156.299560546875 57.32525634765625 156.299560546875 105.700439453125V398.99951171875H26.699951171875V494.2501220703125H156.299560546875V653.1497802734375H270.7503662109375V494.2501220703125H412.699951171875V398.99951171875H270.7503662109375V125.2506103515625Q270.7503662109375 95.2506103515625 299.100341796875 95.2506103515625H398.2501220703125V0Z" transform="translate(5042.0,0)"/></g>
<path d="M226 316 L250 342 L300 290" stroke="#22B07A" stroke-width="18" fill="none"/>
</g></svg>